<mxfile host="app.diagrams.net" modified="2023-09-06T09:23:43.277Z" agent="Mozilla/5.0 (Windows NT 10.0; Win64; x64) AppleWebKit/537.36 (KHTML, like Gecko) Chrome/114.0.0.0 Safari/537.36" etag="ebip4V09pBspkKCTq9ZV" version="21.7.1" type="github">
  <diagram name="第 1 页" id="9ScqArlVy3845o1RNatb">
    <mxGraphModel dx="1434" dy="764" grid="1" gridSize="10" guides="1" tooltips="1" connect="1" arrows="1" fold="1" page="1" pageScale="1" pageWidth="827" pageHeight="1169" math="0" shadow="0">
      <root>
        <mxCell id="0" />
        <mxCell id="1" parent="0" />
        <mxCell id="h8A9GhAWsbvjDjA1YlGx-1" value="nginx （80）" style="shape=umlLifeline;perimeter=lifelinePerimeter;whiteSpace=wrap;html=1;container=1;dropTarget=0;collapsible=0;recursiveResize=0;outlineConnect=0;portConstraint=eastwest;newEdgeStyle={&quot;edgeStyle&quot;:&quot;elbowEdgeStyle&quot;,&quot;elbow&quot;:&quot;vertical&quot;,&quot;curved&quot;:0,&quot;rounded&quot;:0};" parent="1" vertex="1">
          <mxGeometry x="100" y="170" width="145" height="760" as="geometry" />
        </mxCell>
        <mxCell id="h8A9GhAWsbvjDjA1YlGx-2" value="" style="html=1;points=[];perimeter=orthogonalPerimeter;outlineConnect=0;targetShapes=umlLifeline;portConstraint=eastwest;newEdgeStyle={&quot;edgeStyle&quot;:&quot;elbowEdgeStyle&quot;,&quot;elbow&quot;:&quot;vertical&quot;,&quot;curved&quot;:0,&quot;rounded&quot;:0};" parent="h8A9GhAWsbvjDjA1YlGx-1" vertex="1">
          <mxGeometry x="67.5" y="50" width="10" height="80" as="geometry" />
        </mxCell>
        <mxCell id="u1h7gll65EwsYc3Z7PDN-1" value="雷池（81）" style="shape=umlLifeline;perimeter=lifelinePerimeter;whiteSpace=wrap;html=1;container=1;dropTarget=0;collapsible=0;recursiveResize=0;outlineConnect=0;portConstraint=eastwest;newEdgeStyle={&quot;edgeStyle&quot;:&quot;elbowEdgeStyle&quot;,&quot;elbow&quot;:&quot;vertical&quot;,&quot;curved&quot;:0,&quot;rounded&quot;:0};" vertex="1" parent="1">
          <mxGeometry x="300" y="170" width="145" height="760" as="geometry" />
        </mxCell>
        <mxCell id="u1h7gll65EwsYc3Z7PDN-2" value="" style="html=1;points=[];perimeter=orthogonalPerimeter;outlineConnect=0;targetShapes=umlLifeline;portConstraint=eastwest;newEdgeStyle={&quot;edgeStyle&quot;:&quot;elbowEdgeStyle&quot;,&quot;elbow&quot;:&quot;vertical&quot;,&quot;curved&quot;:0,&quot;rounded&quot;:0};" vertex="1" parent="u1h7gll65EwsYc3Z7PDN-1">
          <mxGeometry x="67.5" y="50" width="10" height="80" as="geometry" />
        </mxCell>
        <mxCell id="u1h7gll65EwsYc3Z7PDN-3" value="nginx （81）" style="shape=umlLifeline;perimeter=lifelinePerimeter;whiteSpace=wrap;html=1;container=1;dropTarget=0;collapsible=0;recursiveResize=0;outlineConnect=0;portConstraint=eastwest;newEdgeStyle={&quot;edgeStyle&quot;:&quot;elbowEdgeStyle&quot;,&quot;elbow&quot;:&quot;vertical&quot;,&quot;curved&quot;:0,&quot;rounded&quot;:0};" vertex="1" parent="1">
          <mxGeometry x="500" y="170" width="145" height="760" as="geometry" />
        </mxCell>
        <mxCell id="u1h7gll65EwsYc3Z7PDN-4" value="" style="html=1;points=[];perimeter=orthogonalPerimeter;outlineConnect=0;targetShapes=umlLifeline;portConstraint=eastwest;newEdgeStyle={&quot;edgeStyle&quot;:&quot;elbowEdgeStyle&quot;,&quot;elbow&quot;:&quot;vertical&quot;,&quot;curved&quot;:0,&quot;rounded&quot;:0};" vertex="1" parent="u1h7gll65EwsYc3Z7PDN-3">
          <mxGeometry x="67.5" y="50" width="10" height="80" as="geometry" />
        </mxCell>
        <mxCell id="u1h7gll65EwsYc3Z7PDN-5" style="edgeStyle=elbowEdgeStyle;rounded=0;orthogonalLoop=1;jettySize=auto;html=1;elbow=vertical;curved=0;" edge="1" parent="1" source="h8A9GhAWsbvjDjA1YlGx-2" target="u1h7gll65EwsYc3Z7PDN-1">
          <mxGeometry relative="1" as="geometry" />
        </mxCell>
        <mxCell id="u1h7gll65EwsYc3Z7PDN-6" style="edgeStyle=elbowEdgeStyle;rounded=0;orthogonalLoop=1;jettySize=auto;html=1;elbow=vertical;curved=0;" edge="1" parent="1" source="u1h7gll65EwsYc3Z7PDN-2" target="u1h7gll65EwsYc3Z7PDN-3">
          <mxGeometry relative="1" as="geometry" />
        </mxCell>
        <mxCell id="u1h7gll65EwsYc3Z7PDN-7" value="雷池(80)" style="shape=umlLifeline;perimeter=lifelinePerimeter;whiteSpace=wrap;html=1;container=1;dropTarget=0;collapsible=0;recursiveResize=0;outlineConnect=0;portConstraint=eastwest;newEdgeStyle={&quot;edgeStyle&quot;:&quot;elbowEdgeStyle&quot;,&quot;elbow&quot;:&quot;vertical&quot;,&quot;curved&quot;:0,&quot;rounded&quot;:0};" vertex="1" parent="1">
          <mxGeometry x="100" y="1340" width="145" height="760" as="geometry" />
        </mxCell>
        <mxCell id="u1h7gll65EwsYc3Z7PDN-8" value="" style="html=1;points=[];perimeter=orthogonalPerimeter;outlineConnect=0;targetShapes=umlLifeline;portConstraint=eastwest;newEdgeStyle={&quot;edgeStyle&quot;:&quot;elbowEdgeStyle&quot;,&quot;elbow&quot;:&quot;vertical&quot;,&quot;curved&quot;:0,&quot;rounded&quot;:0};" vertex="1" parent="u1h7gll65EwsYc3Z7PDN-7">
          <mxGeometry x="67.5" y="50" width="10" height="80" as="geometry" />
        </mxCell>
        <mxCell id="u1h7gll65EwsYc3Z7PDN-9" value="nginx (8080)" style="shape=umlLifeline;perimeter=lifelinePerimeter;whiteSpace=wrap;html=1;container=1;dropTarget=0;collapsible=0;recursiveResize=0;outlineConnect=0;portConstraint=eastwest;newEdgeStyle={&quot;edgeStyle&quot;:&quot;elbowEdgeStyle&quot;,&quot;elbow&quot;:&quot;vertical&quot;,&quot;curved&quot;:0,&quot;rounded&quot;:0};" vertex="1" parent="1">
          <mxGeometry x="300" y="1340" width="145" height="760" as="geometry" />
        </mxCell>
        <mxCell id="u1h7gll65EwsYc3Z7PDN-10" value="" style="html=1;points=[];perimeter=orthogonalPerimeter;outlineConnect=0;targetShapes=umlLifeline;portConstraint=eastwest;newEdgeStyle={&quot;edgeStyle&quot;:&quot;elbowEdgeStyle&quot;,&quot;elbow&quot;:&quot;vertical&quot;,&quot;curved&quot;:0,&quot;rounded&quot;:0};" vertex="1" parent="u1h7gll65EwsYc3Z7PDN-9">
          <mxGeometry x="67.5" y="50" width="10" height="80" as="geometry" />
        </mxCell>
        <mxCell id="u1h7gll65EwsYc3Z7PDN-11" value="web" style="shape=umlLifeline;perimeter=lifelinePerimeter;whiteSpace=wrap;html=1;container=1;dropTarget=0;collapsible=0;recursiveResize=0;outlineConnect=0;portConstraint=eastwest;newEdgeStyle={&quot;edgeStyle&quot;:&quot;elbowEdgeStyle&quot;,&quot;elbow&quot;:&quot;vertical&quot;,&quot;curved&quot;:0,&quot;rounded&quot;:0};" vertex="1" parent="1">
          <mxGeometry x="500" y="1340" width="145" height="760" as="geometry" />
        </mxCell>
        <mxCell id="u1h7gll65EwsYc3Z7PDN-12" value="" style="html=1;points=[];perimeter=orthogonalPerimeter;outlineConnect=0;targetShapes=umlLifeline;portConstraint=eastwest;newEdgeStyle={&quot;edgeStyle&quot;:&quot;elbowEdgeStyle&quot;,&quot;elbow&quot;:&quot;vertical&quot;,&quot;curved&quot;:0,&quot;rounded&quot;:0};" vertex="1" parent="u1h7gll65EwsYc3Z7PDN-11">
          <mxGeometry x="67.5" y="50" width="10" height="80" as="geometry" />
        </mxCell>
        <mxCell id="u1h7gll65EwsYc3Z7PDN-13" style="edgeStyle=elbowEdgeStyle;rounded=0;orthogonalLoop=1;jettySize=auto;html=1;elbow=vertical;curved=0;" edge="1" source="u1h7gll65EwsYc3Z7PDN-8" target="u1h7gll65EwsYc3Z7PDN-9" parent="1">
          <mxGeometry relative="1" as="geometry" />
        </mxCell>
        <mxCell id="u1h7gll65EwsYc3Z7PDN-14" style="edgeStyle=elbowEdgeStyle;rounded=0;orthogonalLoop=1;jettySize=auto;html=1;elbow=vertical;curved=0;" edge="1" source="u1h7gll65EwsYc3Z7PDN-10" target="u1h7gll65EwsYc3Z7PDN-11" parent="1">
          <mxGeometry relative="1" as="geometry" />
        </mxCell>
      </root>
    </mxGraphModel>
  </diagram>
</mxfile>
